{
    "asset" : {
        "generator" : "Khronos glTF Blender I/O v1.7.33",
        "version" : "2.0"
    },
    "scene" : 0,
    "scenes" : [
        {
            "name" : "Scene",
            "nodes" : [
                0
            ]
        }
    ],
    "nodes" : [
        {
            "mesh" : 0,
            "name" : "Telion",
            "translation" : [
                0.0007043369114398956,
                0,
                0
            ]
        }
    ],
    "materials" : [
        {
            "doubleSided" : true,
            "name" : "global",
            "pbrMetallicRoughness" : {
                "baseColorFactor" : [
                    0.9619611501693726,
                    1,
                    0.9882211089134216,
                    1
                ],
                "metallicFactor" : 0,
                "roughnessFactor" : 0.5
            }
        },
        {
            "doubleSided" : true,
            "name" : "outline",
            "pbrMetallicRoughness" : {
                "baseColorFactor" : [
                    0.007190799806267023,
                    0,
                    0.08983392268419266,
                    1
                ],
                "metallicFactor" : 0,
                "roughnessFactor" : 0.5
            }
        },
        {
            "alphaMode" : "BLEND",
            "doubleSided" : true,
            "name" : "glasse",
            "pbrMetallicRoughness" : {}
        },
        {
            "doubleSided" : true,
            "name" : "screen",
            "pbrMetallicRoughness" : {
                "baseColorFactor" : [
                    0,
                    0,
                    0,
                    1
                ],
                "metallicFactor" : 0,
                "roughnessFactor" : 0
            }
        },
        {
            "doubleSided" : true,
            "name" : "absorbant",
            "pbrMetallicRoughness" : {
                "baseColorFactor" : [
                    0,
                    0,
                    0,
                    1
                ],
                "metallicFactor" : 0
            }
        },
        {
            "doubleSided" : true,
            "name" : "lentilleautour",
            "pbrMetallicRoughness" : {
                "baseColorFactor" : [
                    0.006688836961984634,
                    0,
                    0.14516478776931763,
                    1
                ],
                "metallicFactor" : 0
            }
        },
        {
            "alphaMode" : "BLEND",
            "doubleSided" : true,
            "emissiveFactor" : [
                1,
                1,
                1
            ],
            "emissiveTexture" : {
                "index" : 0
            },
            "name" : "lion",
            "pbrMetallicRoughness" : {
                "baseColorTexture" : {
                    "index" : 1
                },
                "metallicFactor" : 0.6000000238418579,
                "roughnessFactor" : 0.30000001192092896
            }
        },
        {
            "alphaMode" : "BLEND",
            "doubleSided" : true,
            "emissiveFactor" : [
                1,
                1,
                1
            ],
            "emissiveTexture" : {
                "index" : 2
            },
            "name" : "\u30e9\u30a4\u30aa\u30f3",
            "pbrMetallicRoughness" : {
                "baseColorTexture" : {
                    "index" : 3
                },
                "metallicFactor" : 0,
                "roughnessFactor" : 0.5
            }
        }
    ],
    "meshes" : [
        {
            "name" : "Cube",
            "primitives" : [
                {
                    "attributes" : {
                        "POSITION" : 0,
                        "NORMAL" : 1,
                        "TEXCOORD_0" : 2
                    },
                    "indices" : 3,
                    "material" : 0
                },
                {
                    "attributes" : {
                        "POSITION" : 4,
                        "NORMAL" : 5,
                        "TEXCOORD_0" : 6
                    },
                    "indices" : 7,
                    "material" : 1
                },
                {
                    "attributes" : {
                        "POSITION" : 8,
                        "NORMAL" : 9,
                        "TEXCOORD_0" : 10
                    },
                    "indices" : 11,
                    "material" : 2
                },
                {
                    "attributes" : {
                        "POSITION" : 12,
                        "NORMAL" : 13,
                        "TEXCOORD_0" : 14
                    },
                    "indices" : 15,
                    "material" : 3
                },
                {
                    "attributes" : {
                        "POSITION" : 16,
                        "NORMAL" : 17,
                        "TEXCOORD_0" : 18
                    },
                    "indices" : 19,
                    "material" : 4
                },
                {
                    "attributes" : {
                        "POSITION" : 20,
                        "NORMAL" : 21,
                        "TEXCOORD_0" : 22
                    },
                    "indices" : 23,
                    "material" : 5
                },
                {
                    "attributes" : {
                        "POSITION" : 24,
                        "NORMAL" : 25,
                        "TEXCOORD_0" : 26
                    },
                    "indices" : 27,
                    "material" : 6
                },
                {
                    "attributes" : {
                        "POSITION" : 28,
                        "NORMAL" : 29,
                        "TEXCOORD_0" : 30
                    },
                    "indices" : 31,
                    "material" : 7
                }
            ]
        }
    ],
    "textures" : [
        {
            "sampler" : 0,
            "source" : 0
        },
        {
            "sampler" : 0,
            "source" : 0
        },
        {
            "sampler" : 0,
            "source" : 1
        },
        {
            "sampler" : 0,
            "source" : 1
        }
    ],
    "images" : [
        {
            "bufferView" : 28,
            "mimeType" : "image/png",
            "name" : "lion"
        },
        {
            "bufferView" : 33,
            "mimeType" : "image/png",
            "name" : "\u30e9\u30a4\u30aa\u30f3"
        }
    ],
    "accessors" : [
        {
            "bufferView" : 0,
            "componentType" : 5126,
            "count" : 5293,
            "max" : [
                0.03866874799132347,
                0.001318102702498436,
                0.07544999569654465
            ],
            "min" : [
                -0.03830467164516449,
                -0.0064194598235189915,
                -0.07544999569654465
            ],
            "type" : "VEC3"
        },
        {
            "bufferView" : 1,
            "componentType" : 5126,
            "count" : 5293,
            "type" : "VEC3"
        },
        {
            "bufferView" : 2,
            "componentType" : 5126,
            "count" : 5293,
            "type" : "VEC2"
        },
        {
            "bufferView" : 3,
            "componentType" : 5123,
            "count" : 15888,
            "type" : "SCALAR"
        },
        {
            "bufferView" : 4,
            "componentType" : 5126,
            "count" : 4012,
            "max" : [
                0.03784999996423721,
                0.004149999935179949,
                0.07544999569654465
            ],
            "min" : [
                -0.03784999996423721,
                -0.0064194598235189915,
                -0.07544999569654465
            ],
            "type" : "VEC3"
        },
        {
            "bufferView" : 5,
            "componentType" : 5126,
            "count" : 4012,
            "type" : "VEC3"
        },
        {
            "bufferView" : 6,
            "componentType" : 5126,
            "count" : 4012,
            "type" : "VEC2"
        },
        {
            "bufferView" : 7,
            "componentType" : 5123,
            "count" : 16956,
            "type" : "SCALAR"
        },
        {
            "bufferView" : 8,
            "componentType" : 5126,
            "count" : 590,
            "max" : [
                0.03555023670196533,
                0.004149999935179949,
                0.07315023243427277
            ],
            "min" : [
                -0.03555023670196533,
                -0.0064194598235189915,
                -0.07315023243427277
            ],
            "type" : "VEC3"
        },
        {
            "bufferView" : 9,
            "componentType" : 5126,
            "count" : 590,
            "type" : "VEC3"
        },
        {
            "bufferView" : 10,
            "componentType" : 5126,
            "count" : 590,
            "type" : "VEC2"
        },
        {
            "bufferView" : 11,
            "componentType" : 5123,
            "count" : 2874,
            "type" : "SCALAR"
        },
        {
            "bufferView" : 12,
            "componentType" : 5126,
            "count" : 1741,
            "max" : [
                0.03555023670196533,
                0.003140693996101618,
                0.07544999569654465
            ],
            "min" : [
                -0.03555023670196533,
                -0.0064194598235189915,
                -0.07315023243427277
            ],
            "type" : "VEC3"
        },
        {
            "bufferView" : 13,
            "componentType" : 5126,
            "count" : 1741,
            "type" : "VEC3"
        },
        {
            "bufferView" : 14,
            "componentType" : 5126,
            "count" : 1741,
            "type" : "VEC2"
        },
        {
            "bufferView" : 15,
            "componentType" : 5123,
            "count" : 5586,
            "type" : "SCALAR"
        },
        {
            "bufferView" : 16,
            "componentType" : 5126,
            "count" : 1739,
            "max" : [
                0.037871457636356354,
                0.004149999935179949,
                0.07544999569654465
            ],
            "min" : [
                -0.03784999996423721,
                -0.006199229508638382,
                -0.07544999569654465
            ],
            "type" : "VEC3"
        },
        {
            "bufferView" : 17,
            "componentType" : 5126,
            "count" : 1739,
            "type" : "VEC3"
        },
        {
            "bufferView" : 18,
            "componentType" : 5126,
            "count" : 1739,
            "type" : "VEC2"
        },
        {
            "bufferView" : 19,
            "componentType" : 5123,
            "count" : 5535,
            "type" : "SCALAR"
        },
        {
            "bufferView" : 20,
            "componentType" : 5126,
            "count" : 769,
            "max" : [
                0.027191292494535446,
                0.004149999935179949,
                -0.039452552795410156
            ],
            "min" : [
                -0.012052142061293125,
                -0.005950738675892353,
                -0.07144073396921158
            ],
            "type" : "VEC3"
        },
        {
            "bufferView" : 21,
            "componentType" : 5126,
            "count" : 769,
            "type" : "VEC3"
        },
        {
            "bufferView" : 22,
            "componentType" : 5126,
            "count" : 769,
            "type" : "VEC2"
        },
        {
            "bufferView" : 23,
            "componentType" : 5123,
            "count" : 3534,
            "type" : "SCALAR"
        },
        {
            "bufferView" : 24,
            "componentType" : 5126,
            "count" : 4,
            "max" : [
                0.03321120887994766,
                0.0031853788532316685,
                0.028610192239284515
            ],
            "min" : [
                -0.03385011851787567,
                0.0031853788532316685,
                -0.04463833570480347
            ],
            "type" : "VEC3"
        },
        {
            "bufferView" : 25,
            "componentType" : 5126,
            "count" : 4,
            "type" : "VEC3"
        },
        {
            "bufferView" : 26,
            "componentType" : 5126,
            "count" : 4,
            "type" : "VEC2"
        },
        {
            "bufferView" : 27,
            "componentType" : 5123,
            "count" : 6,
            "type" : "SCALAR"
        },
        {
            "bufferView" : 29,
            "componentType" : 5126,
            "count" : 4,
            "max" : [
                0.008795331232249737,
                -0.004321147687733173,
                0.06370047479867935
            ],
            "min" : [
                -0.008795331232249737,
                -0.004321147687733173,
                -0.024661904200911522
            ],
            "type" : "VEC3"
        },
        {
            "bufferView" : 30,
            "componentType" : 5126,
            "count" : 4,
            "type" : "VEC3"
        },
        {
            "bufferView" : 31,
            "componentType" : 5126,
            "count" : 4,
            "type" : "VEC2"
        },
        {
            "bufferView" : 32,
            "componentType" : 5123,
            "count" : 6,
            "type" : "SCALAR"
        }
    ],
    "bufferViews" : [
        {
            "buffer" : 0,
            "byteLength" : 63516,
            "byteOffset" : 0
        },
        {
            "buffer" : 0,
            "byteLength" : 63516,
            "byteOffset" : 63516
        },
        {
            "buffer" : 0,
            "byteLength" : 42344,
            "byteOffset" : 127032
        },
        {
            "buffer" : 0,
            "byteLength" : 31776,
            "byteOffset" : 169376
        },
        {
            "buffer" : 0,
            "byteLength" : 48144,
            "byteOffset" : 201152
        },
        {
            "buffer" : 0,
            "byteLength" : 48144,
            "byteOffset" : 249296
        },
        {
            "buffer" : 0,
            "byteLength" : 32096,
            "byteOffset" : 297440
        },
        {
            "buffer" : 0,
            "byteLength" : 33912,
            "byteOffset" : 329536
        },
        {
            "buffer" : 0,
            "byteLength" : 7080,
            "byteOffset" : 363448
        },
        {
            "buffer" : 0,
            "byteLength" : 7080,
            "byteOffset" : 370528
        },
        {
            "buffer" : 0,
            "byteLength" : 4720,
            "byteOffset" : 377608
        },
        {
            "buffer" : 0,
            "byteLength" : 5748,
            "byteOffset" : 382328
        },
        {
            "buffer" : 0,
            "byteLength" : 20892,
            "byteOffset" : 388076
        },
        {
            "buffer" : 0,
            "byteLength" : 20892,
            "byteOffset" : 408968
        },
        {
            "buffer" : 0,
            "byteLength" : 13928,
            "byteOffset" : 429860
        },
        {
            "buffer" : 0,
            "byteLength" : 11172,
            "byteOffset" : 443788
        },
        {
            "buffer" : 0,
            "byteLength" : 20868,
            "byteOffset" : 454960
        },
        {
            "buffer" : 0,
            "byteLength" : 20868,
            "byteOffset" : 475828
        },
        {
            "buffer" : 0,
            "byteLength" : 13912,
            "byteOffset" : 496696
        },
        {
            "buffer" : 0,
            "byteLength" : 11070,
            "byteOffset" : 510608
        },
        {
            "buffer" : 0,
            "byteLength" : 9228,
            "byteOffset" : 521680
        },
        {
            "buffer" : 0,
            "byteLength" : 9228,
            "byteOffset" : 530908
        },
        {
            "buffer" : 0,
            "byteLength" : 6152,
            "byteOffset" : 540136
        },
        {
            "buffer" : 0,
            "byteLength" : 7068,
            "byteOffset" : 546288
        },
        {
            "buffer" : 0,
            "byteLength" : 48,
            "byteOffset" : 553356
        },
        {
            "buffer" : 0,
            "byteLength" : 48,
            "byteOffset" : 553404
        },
        {
            "buffer" : 0,
            "byteLength" : 32,
            "byteOffset" : 553452
        },
        {
            "buffer" : 0,
            "byteLength" : 12,
            "byteOffset" : 553484
        },
        {
            "buffer" : 0,
            "byteLength" : 231997,
            "byteOffset" : 553496
        },
        {
            "buffer" : 0,
            "byteLength" : 48,
            "byteOffset" : 785496
        },
        {
            "buffer" : 0,
            "byteLength" : 48,
            "byteOffset" : 785544
        },
        {
            "buffer" : 0,
            "byteLength" : 32,
            "byteOffset" : 785592
        },
        {
            "buffer" : 0,
            "byteLength" : 12,
            "byteOffset" : 785624
        },
        {
            "buffer" : 0,
            "byteLength" : 33729,
            "byteOffset" : 785636
        }
    ],
    "samplers" : [
        {
            "magFilter" : 9729,
            "minFilter" : 9987,
            "wrapS" : 33071,
            "wrapT" : 33071
        }
    ],
    "buffers" : [
        {
            "byteLength" : 819368,
            "uri" : "data:application/octet-stream;base64,"
        }
    ]
}
